<svg width="22" height="22" viewBox="0 0 22 22" fill="none" xmlns="http://www.w3.org/2000/svg">
<path fill-rule="evenodd" clip-rule="evenodd" d="M14.6654 8.2487C14.6654 9.22116 14.2791 10.1538 13.5914 10.8414C12.9038 11.5291 11.9712 11.9154 10.9987 11.9154C10.0262 11.9154 9.09361 11.5291 8.40597 10.8414C7.71834 10.1538 7.33203 9.22116 7.33203 8.2487C7.33203 7.27624 7.71834 6.34361 8.40597 5.65597C9.09361 4.96834 10.0262 4.58203 10.9987 4.58203C11.9712 4.58203 12.9038 4.96834 13.5914 5.65597C14.2791 6.34361 14.6654 7.27624 14.6654 8.2487V8.2487ZM12.832 8.2487C12.832 8.73493 12.6389 9.20124 12.2951 9.54506C11.9512 9.88888 11.4849 10.082 10.9987 10.082C10.5125 10.082 10.0462 9.88888 9.70234 9.54506C9.35852 9.20124 9.16536 8.73493 9.16536 8.2487C9.16536 7.76247 9.35852 7.29615 9.70234 6.95234C10.0462 6.60852 10.5125 6.41536 10.9987 6.41536C11.4849 6.41536 11.9512 6.60852 12.2951 6.95234C12.6389 7.29615 12.832 7.76247 12.832 8.2487V8.2487Z" fill="#1F1F54"/>
<path fill-rule="evenodd" clip-rule="evenodd" d="M10.9993 0.916016C5.4306 0.916016 0.916016 5.4306 0.916016 10.9993C0.916016 16.5681 5.4306 21.0827 10.9993 21.0827C16.5681 21.0827 21.0827 16.5681 21.0827 10.9993C21.0827 5.4306 16.5681 0.916016 10.9993 0.916016ZM2.74935 10.9993C2.74935 12.9152 3.40293 14.6788 4.49835 16.0795C5.26764 15.0693 6.26009 14.2505 7.39816 13.6873C8.53623 13.1241 9.78911 12.8316 11.0589 12.8327C12.3123 12.8315 13.5494 13.1164 14.676 13.6657C15.8026 14.2151 16.789 15.0143 17.5599 16.0025C18.3542 14.9608 18.8889 13.745 19.12 12.4556C19.3511 11.1661 19.2717 9.84026 18.8886 8.58758C18.5055 7.33491 17.8296 6.19148 16.9169 5.25188C16.0041 4.31229 14.8807 3.60355 13.6397 3.18432C12.3987 2.76508 11.0756 2.64739 9.78005 2.84099C8.48449 3.03459 7.25366 3.53392 6.18939 4.29765C5.12512 5.06138 4.25801 6.06756 3.65981 7.23294C3.06161 8.39833 2.74951 9.6894 2.74935 10.9993V10.9993ZM10.9993 19.2493C9.10547 19.2522 7.26876 18.6007 5.80002 17.405C6.3912 16.5587 7.17808 15.8677 8.09369 15.3908C9.00931 14.9139 10.0266 14.6653 11.0589 14.666C12.0784 14.6652 13.0834 14.9076 13.9904 15.3732C14.8974 15.8387 15.6802 16.5139 16.2738 17.3427C14.7937 18.5772 12.9267 19.2521 10.9993 19.2493V19.2493Z" fill="#1F1F54"/>
</svg>
