<svg width="16" height="16" viewBox="0 0 16 16" fill="none" xmlns="http://www.w3.org/2000/svg">
<g clip-path="url(#clip0_2009_17365)">
<path d="M6.0026 14.6673C6.37079 14.6673 6.66927 14.3688 6.66927 14.0007C6.66927 13.6325 6.37079 13.334 6.0026 13.334C5.63441 13.334 5.33594 13.6325 5.33594 14.0007C5.33594 14.3688 5.63441 14.6673 6.0026 14.6673Z" stroke="#737373" stroke-width="1.5" stroke-linecap="round" stroke-linejoin="round"/>
<path d="M13.3307 14.6673C13.6989 14.6673 13.9974 14.3688 13.9974 14.0007C13.9974 13.6325 13.6989 13.334 13.3307 13.334C12.9625 13.334 12.6641 13.6325 12.6641 14.0007C12.6641 14.3688 12.9625 14.6673 13.3307 14.6673Z" stroke="#737373" stroke-width="1.5" stroke-linecap="round" stroke-linejoin="round"/>
<path d="M0.664062 0.666016H3.33073L5.1174 9.59268C5.17836 9.89961 5.34533 10.1753 5.58909 10.3715C5.83285 10.5678 6.13786 10.672 6.45073 10.666H12.9307C13.2436 10.672 13.5486 10.5678 13.7924 10.3715C14.0361 10.1753 14.2031 9.89961 14.2641 9.59268L15.3307 3.99935H3.9974" stroke="#737373" stroke-width="1.5" stroke-linecap="round" stroke-linejoin="round"/>
</g>
<defs>
<clipPath id="clip0_2009_17365">
<rect width="16" height="16" fill="white"/>
</clipPath>
</defs>
</svg>
