<svg width="22" height="22" viewBox="0 0 22 22" fill="none" xmlns="http://www.w3.org/2000/svg">
<g clip-path="url(#clip0_2218_847)">
<path d="M14.666 2.75H0.916016V14.6667H14.666V2.75Z" stroke="#1F1F54" stroke-width="2" stroke-linecap="round" stroke-linejoin="round"/>
<path d="M14.666 7.33398H18.3327L21.0827 10.084V14.6673H14.666V7.33398Z" stroke="#1F1F54" stroke-width="2" stroke-linecap="round" stroke-linejoin="round"/>
<path d="M5.04167 19.2493C6.30732 19.2493 7.33333 18.2233 7.33333 16.9577C7.33333 15.692 6.30732 14.666 5.04167 14.666C3.77601 14.666 2.75 15.692 2.75 16.9577C2.75 18.2233 3.77601 19.2493 5.04167 19.2493Z" stroke="#1F1F54" stroke-width="2" stroke-linecap="round" stroke-linejoin="round"/>
<path d="M16.9577 19.2493C18.2233 19.2493 19.2493 18.2233 19.2493 16.9577C19.2493 15.692 18.2233 14.666 16.9577 14.666C15.692 14.666 14.666 15.692 14.666 16.9577C14.666 18.2233 15.692 19.2493 16.9577 19.2493Z" stroke="#1F1F54" stroke-width="2" stroke-linecap="round" stroke-linejoin="round"/>
</g>
<defs>
<clipPath id="clip0_2218_847">
<rect width="22" height="22" fill="white"/>
</clipPath>
</defs>
</svg>
